<?xml version="1.0" standalone="no"?><svg xmlns:xlink="http://www.w3.org/1999/xlink" xmlns="http://www.w3.org/2000/svg" viewBox="0 0 1000 888.888888888889" preserveAspectRatio="xMaxYMax slice"><g transform="scale(1.8380663541953866)"><rect x="0" y="0" width="544.0500000000001" height="483.6" fill="#ffffff"/><circle cx="30.225" cy="30.225" r="30.225" fill="#9fd1c8"/><circle cx="90.67500000000001" cy="30.225" r="30.225" fill="#d7f1e2"/><circle cx="151.125" cy="30.225" r="30.225" fill="#65d996"/><circle cx="211.575" cy="30.225" r="30.225" fill="#6daea1"/><circle cx="272.02500000000003" cy="30.225" r="30.225" fill="#f6faf9"/><circle cx="332.475" cy="30.225" r="30.225" fill="#65b6a6"/><rect x="362.70000000000005" y="0" width="60.45" height="60.45" fill="#ffffff"/><circle cx="377.815" cy="15.115" r="15.115" fill="#87e2ad"/><circle cx="408.045" cy="15.115" r="15.115" fill="#edfbf3"/><circle cx="377.815" cy="45.345" r="15.115" fill="#dceeeb"/><circle cx="408.045" cy="45.345" r="15.115" fill="#9ce7bc"/><circle cx="453.375" cy="30.225" r="30.225" fill="#d3e7e3"/><circle cx="513.825" cy="30.225" r="30.225" fill="#378f7d"/><circle cx="30.225" cy="90.67500000000001" r="30.225" fill="#79bfb1"/><rect x="60.45" y="60.45" width="60.45" height="60.45" fill="#ffffff"/><circle cx="75.565" cy="75.565" r="15.115" fill="#6ada99"/><circle cx="105.795" cy="75.565" r="15.115" fill="#419584"/><circle cx="75.565" cy="105.795" r="15.115" fill="#c9ecd8"/><circle cx="105.795" cy="105.795" r="15.115" fill="#dbebe8"/><circle cx="151.125" cy="90.67500000000001" r="30.225" fill="#c6e4de"/><rect x="181.35000000000002" y="60.45" width="60.45" height="60.45" fill="#ffffff"/><circle cx="196.465" cy="75.565" r="15.115" fill="#cbe2dd"/><circle cx="226.69500000000002" cy="75.565" r="15.115" fill="#abe2c2"/><circle cx="196.465" cy="105.795" r="15.115" fill="#76dda2"/><circle cx="226.69500000000002" cy="105.795" r="15.115" fill="#70dc9d"/><rect x="241.8" y="60.45" width="60.45" height="60.45" fill="#ffffff"/><circle cx="256.915" cy="75.565" r="15.115" fill="#56ae9d"/><circle cx="287.145" cy="75.565" r="15.115" fill="#f6fdf9"/><circle cx="256.915" cy="105.795" r="15.115" fill="#77beb0"/><circle cx="287.145" cy="105.795" r="15.115" fill="#5eb2a2"/><circle cx="332.475" cy="90.67500000000001" r="30.225" fill="#c0e1da"/><rect x="362.70000000000005" y="60.45" width="60.45" height="60.45" fill="#ffffff"/><circle cx="377.815" cy="75.565" r="15.115" fill="#d8ede9"/><circle cx="408.045" cy="75.565" r="15.115" fill="#c9e5e0"/><circle cx="377.815" cy="105.795" r="15.115" fill="#19917a"/><circle cx="408.045" cy="105.795" r="15.115" fill="#bcdfd8"/><circle cx="453.375" cy="90.67500000000001" r="30.225" fill="#54c383"/><circle cx="513.825" cy="90.67500000000001" r="30.225" fill="#f1f7f6"/><rect x="0" y="120.9" width="60.45" height="60.45" fill="#ffffff"/><circle cx="15.115" cy="136.01500000000001" r="15.115" fill="#c5f1d7"/><circle cx="45.345" cy="136.01500000000001" r="15.115" fill="#73dd9f"/><circle cx="15.115" cy="166.245" r="15.115" fill="#349e8a"/><circle cx="45.345" cy="166.245" r="15.115" fill="#a6d4cb"/><circle cx="90.67500000000001" cy="151.125" r="30.225" fill="#abe2c2"/><rect x="120.9" y="120.9" width="60.45" height="60.45" fill="#ffffff"/><circle cx="136.01500000000001" cy="136.01500000000001" r="15.115" fill="#f6fcf8"/><circle cx="166.245" cy="136.01500000000001" r="15.115" fill="#b3eccb"/><circle cx="136.01500000000001" cy="166.245" r="15.115" fill="#2c8977"/><circle cx="166.245" cy="166.245" r="15.115" fill="#b0d3cc"/><circle cx="211.575" cy="151.125" r="30.225" fill="#288774"/><rect x="241.8" y="120.9" width="60.45" height="60.45" fill="#ffffff"/><circle cx="256.915" cy="136.01500000000001" r="15.115" fill="#edfbf3"/><circle cx="287.145" cy="136.01500000000001" r="15.115" fill="#7ab5a9"/><circle cx="256.915" cy="166.245" r="15.115" fill="#d8f1e3"/><circle cx="287.145" cy="166.245" r="15.115" fill="#afebc8"/><rect x="302.25" y="120.9" width="60.45" height="60.45" fill="#ffffff"/><circle cx="317.365" cy="136.01500000000001" r="15.115" fill="#69b7a8"/><circle cx="347.595" cy="136.01500000000001" r="15.115" fill="#bcdfd8"/><circle cx="317.365" cy="166.245" r="15.115" fill="#ffffff"/><circle cx="347.595" cy="166.245" r="15.115" fill="#5cc689"/><circle cx="392.925" cy="151.125" r="30.225" fill="#b0ecc9"/><rect x="423.15000000000003" y="120.9" width="60.45" height="60.45" fill="#ffffff"/><circle cx="438.265" cy="136.01500000000001" r="15.115" fill="#1f826e"/><circle cx="468.495" cy="136.01500000000001" r="15.115" fill="#34b86b"/><circle cx="438.265" cy="166.245" r="15.115" fill="#96cdc2"/><circle cx="468.495" cy="166.245" r="15.115" fill="#b2e4c7"/><rect x="483.6" y="120.9" width="60.45" height="60.45" fill="#ffffff"/><circle cx="498.71500000000003" cy="136.01500000000001" r="15.115" fill="#f0f8f6"/><circle cx="528.945" cy="136.01500000000001" r="15.115" fill="#89d6aa"/><circle cx="498.71500000000003" cy="166.245" r="15.115" fill="#d2eae5"/><circle cx="528.945" cy="166.245" r="15.115" fill="#3aa18d"/><rect x="0" y="181.35000000000002" width="60.45" height="60.45" fill="#ffffff"/><circle cx="15.115" cy="196.465" r="15.115" fill="#d5ebe6"/><circle cx="45.345" cy="196.465" r="15.115" fill="#6dcc95"/><circle cx="15.115" cy="226.69500000000002" r="15.115" fill="#6ada99"/><circle cx="45.345" cy="226.69500000000002" r="15.115" fill="#a4e9c1"/><rect x="60.45" y="181.35000000000002" width="60.45" height="60.45" fill="#ffffff"/><circle cx="75.565" cy="196.465" r="15.115" fill="#7ab5a9"/><circle cx="105.795" cy="196.465" r="15.115" fill="#e7f2f0"/><circle cx="75.565" cy="226.69500000000002" r="15.115" fill="#f7fdf9"/><circle cx="105.795" cy="226.69500000000002" r="15.115" fill="#e5f9ed"/><circle cx="151.125" cy="211.575" r="30.225" fill="#c1e1db"/><rect x="181.35000000000002" y="181.35000000000002" width="60.45" height="60.45" fill="#ffffff"/><circle cx="196.465" cy="196.465" r="15.115" fill="#6edc9c"/><circle cx="226.69500000000002" cy="196.465" r="15.115" fill="#3fbc74"/><circle cx="196.465" cy="226.69500000000002" r="15.115" fill="#f9fcfb"/><circle cx="226.69500000000002" cy="226.69500000000002" r="15.115" fill="#c5dfda"/><circle cx="272.02500000000003" cy="211.575" r="30.225" fill="#ccedda"/><circle cx="332.475" cy="211.575" r="30.225" fill="#40a491"/><circle cx="392.925" cy="211.575" r="30.225" fill="#cff3de"/><circle cx="453.375" cy="211.575" r="30.225" fill="#78d09d"/><circle cx="513.825" cy="211.575" r="30.225" fill="#d8e9e6"/><circle cx="30.225" cy="272.02500000000003" r="30.225" fill="#69ab9e"/><rect x="60.45" y="241.8" width="60.45" height="60.45" fill="#ffffff"/><circle cx="75.565" cy="256.915" r="15.115" fill="#55a091"/><circle cx="105.795" cy="256.915" r="15.115" fill="#6acb93"/><circle cx="75.565" cy="287.145" r="15.115" fill="#74cf9a"/><circle cx="105.795" cy="287.145" r="15.115" fill="#d6ebe7"/><circle cx="151.125" cy="272.02500000000003" r="30.225" fill="#75dda1"/><rect x="181.35000000000002" y="241.8" width="60.45" height="60.45" fill="#ffffff"/><circle cx="196.465" cy="256.915" r="15.115" fill="#59d68e"/><circle cx="226.69500000000002" cy="256.915" r="15.115" fill="#95dab2"/><circle cx="196.465" cy="287.145" r="15.115" fill="#7adea4"/><circle cx="226.69500000000002" cy="287.145" r="15.115" fill="#7bd19f"/><rect x="241.8" y="241.8" width="60.45" height="60.45" fill="#ffffff"/><circle cx="256.915" cy="256.915" r="15.115" fill="#64b5a5"/><circle cx="287.145" cy="256.915" r="15.115" fill="#98cec3"/><circle cx="256.915" cy="287.145" r="15.115" fill="#73ce9a"/><circle cx="287.145" cy="287.145" r="15.115" fill="#e0f0ed"/><circle cx="332.475" cy="272.02500000000003" r="30.225" fill="#b1e4c6"/><rect x="362.70000000000005" y="241.8" width="60.45" height="60.45" fill="#ffffff"/><circle cx="377.815" cy="256.915" r="15.115" fill="#eaf5f3"/><circle cx="408.045" cy="256.915" r="15.115" fill="#73b1a4"/><circle cx="377.815" cy="287.145" r="15.115" fill="#9dd0c6"/><circle cx="408.045" cy="287.145" r="15.115" fill="#caedd9"/><circle cx="453.375" cy="272.02500000000003" r="30.225" fill="#84c4b8"/><circle cx="513.825" cy="272.02500000000003" r="30.225" fill="#249781"/><rect x="0" y="302.25" width="60.45" height="60.45" fill="#ffffff"/><circle cx="15.115" cy="317.365" r="15.115" fill="#d7f1e2"/><circle cx="45.345" cy="317.365" r="15.115" fill="#a4e9c1"/><circle cx="15.115" cy="347.595" r="15.115" fill="#63b5a5"/><circle cx="45.345" cy="347.595" r="15.115" fill="#e0f4e9"/><rect x="60.45" y="302.25" width="60.45" height="60.45" fill="#ffffff"/><circle cx="75.565" cy="317.365" r="15.115" fill="#53ad9b"/><circle cx="105.795" cy="317.365" r="15.115" fill="#82c3b7"/><circle cx="75.565" cy="347.595" r="15.115" fill="#e8f9ef"/><circle cx="105.795" cy="347.595" r="15.115" fill="#edf5f3"/><circle cx="151.125" cy="332.475" r="30.225" fill="#f1f7f6"/><rect x="181.35000000000002" y="302.25" width="60.45" height="60.45" fill="#ffffff"/><circle cx="196.465" cy="317.365" r="15.115" fill="#add1ca"/><circle cx="226.69500000000002" cy="317.365" r="15.115" fill="#ddf7e8"/><circle cx="196.465" cy="347.595" r="15.115" fill="#82c3b6"/><circle cx="226.69500000000002" cy="347.595" r="15.115" fill="#a7e9c3"/><rect x="241.8" y="302.25" width="60.45" height="60.45" fill="#ffffff"/><circle cx="256.915" cy="317.365" r="15.115" fill="#b4dbd4"/><circle cx="287.145" cy="317.365" r="15.115" fill="#a9d6cd"/><circle cx="256.915" cy="347.595" r="15.115" fill="#4b9b8b"/><circle cx="287.145" cy="347.595" r="15.115" fill="#afe3c5"/><rect x="302.25" y="302.25" width="60.45" height="60.45" fill="#ffffff"/><circle cx="317.365" cy="317.365" r="15.115" fill="#78beb1"/><circle cx="347.595" cy="317.365" r="15.115" fill="#beefd3"/><circle cx="317.365" cy="347.595" r="15.115" fill="#99dbb5"/><circle cx="347.595" cy="347.595" r="15.115" fill="#eafaf1"/><rect x="362.70000000000005" y="302.25" width="60.45" height="60.45" fill="#ffffff"/><circle cx="377.815" cy="317.365" r="15.115" fill="#4ec17e"/><circle cx="408.045" cy="317.365" r="15.115" fill="#a9e1c1"/><circle cx="377.815" cy="347.595" r="15.115" fill="#b0ecc9"/><circle cx="408.045" cy="347.595" r="15.115" fill="#60a698"/><rect x="423.15000000000003" y="302.25" width="60.45" height="60.45" fill="#ffffff"/><circle cx="438.265" cy="317.365" r="15.115" fill="#60d893"/><circle cx="468.495" cy="317.365" r="15.115" fill="#e6f3f1"/><circle cx="438.265" cy="347.595" r="15.115" fill="#89d6a9"/><circle cx="468.495" cy="347.595" r="15.115" fill="#34b86c"/><circle cx="513.825" cy="332.475" r="30.225" fill="#a6cec6"/><rect x="0" y="362.70000000000005" width="60.45" height="60.45" fill="#ffffff"/><circle cx="15.115" cy="377.815" r="15.115" fill="#34b86c"/><circle cx="45.345" cy="377.815" r="15.115" fill="#ddf7e8"/><circle cx="15.115" cy="408.045" r="15.115" fill="#99cfc4"/><circle cx="45.345" cy="408.045" r="15.115" fill="#6bb8a9"/><rect x="60.45" y="362.70000000000005" width="60.45" height="60.45" fill="#ffffff"/><circle cx="75.565" cy="377.815" r="15.115" fill="#519e8e"/><circle cx="105.795" cy="377.815" r="15.115" fill="#64a99b"/><circle cx="75.565" cy="408.045" r="15.115" fill="#67da97"/><circle cx="105.795" cy="408.045" r="15.115" fill="#f4fcf8"/><circle cx="151.125" cy="392.925" r="30.225" fill="#f8fdfa"/><circle cx="211.575" cy="392.925" r="30.225" fill="#f4f9f8"/><rect x="241.8" y="362.70000000000005" width="60.45" height="60.45" fill="#ffffff"/><circle cx="256.915" cy="377.815" r="15.115" fill="#a4e9c1"/><circle cx="287.145" cy="377.815" r="15.115" fill="#61d893"/><circle cx="256.915" cy="408.045" r="15.115" fill="#5ab0a0"/><circle cx="287.145" cy="408.045" r="15.115" fill="#60d892"/><rect x="302.25" y="362.70000000000005" width="60.45" height="60.45" fill="#ffffff"/><circle cx="317.365" cy="377.815" r="15.115" fill="#39a18c"/><circle cx="347.595" cy="377.815" r="15.115" fill="#a8e1c0"/><circle cx="317.365" cy="408.045" r="15.115" fill="#8fe4b3"/><circle cx="347.595" cy="408.045" r="15.115" fill="#77dda2"/><circle cx="392.925" cy="392.925" r="30.225" fill="#519e8f"/><circle cx="453.375" cy="392.925" r="30.225" fill="#bfe9d1"/><circle cx="513.825" cy="392.925" r="30.225" fill="#189179"/><circle cx="30.225" cy="453.375" r="30.225" fill="#3f9483"/><circle cx="90.67500000000001" cy="453.375" r="30.225" fill="#6ddb9c"/><circle cx="151.125" cy="453.375" r="30.225" fill="#e0f4e8"/><rect x="181.35000000000002" y="423.15000000000003" width="60.45" height="60.45" fill="#ffffff"/><circle cx="196.465" cy="438.265" r="15.115" fill="#65b6a6"/><circle cx="226.69500000000002" cy="438.265" r="15.115" fill="#8dd7ac"/><circle cx="196.465" cy="468.495" r="15.115" fill="#9ed1c7"/><circle cx="226.69500000000002" cy="468.495" r="15.115" fill="#80d3a3"/><circle cx="272.02500000000003" cy="453.375" r="30.225" fill="#bfefd3"/><rect x="302.25" y="423.15000000000003" width="60.45" height="60.45" fill="#ffffff"/><circle cx="317.365" cy="438.265" r="15.115" fill="#c1e9d2"/><circle cx="347.595" cy="438.265" r="15.115" fill="#d8f5e5"/><circle cx="317.365" cy="468.495" r="15.115" fill="#5fa697"/><circle cx="347.595" cy="468.495" r="15.115" fill="#d8f1e3"/><rect x="362.70000000000005" y="423.15000000000003" width="60.45" height="60.45" fill="#ffffff"/><circle cx="377.815" cy="438.265" r="15.115" fill="#98e6b9"/><circle cx="408.045" cy="438.265" r="15.115" fill="#bbded7"/><circle cx="377.815" cy="468.495" r="15.115" fill="#92c2b9"/><circle cx="408.045" cy="468.495" r="15.115" fill="#62d994"/><rect x="423.15000000000003" y="423.15000000000003" width="60.45" height="60.45" fill="#ffffff"/><circle cx="438.265" cy="438.265" r="15.115" fill="#a9d6cd"/><circle cx="468.495" cy="438.265" r="15.115" fill="#99dbb5"/><circle cx="438.265" cy="468.495" r="15.115" fill="#f4faf8"/><circle cx="468.495" cy="468.495" r="15.115" fill="#98e6b9"/><rect x="483.6" y="423.15000000000003" width="60.45" height="60.45" fill="#ffffff"/><circle cx="498.71500000000003" cy="438.265" r="15.115" fill="#5fa698"/><circle cx="528.945" cy="438.265" r="15.115" fill="#5ea597"/><circle cx="498.71500000000003" cy="468.495" r="15.115" fill="#82c3b6"/><circle cx="528.945" cy="468.495" r="15.115" fill="#9be6bb"/></g></svg>